<svg width="22" height="22" viewBox="0 0 22 22" fill="none" xmlns="http://www.w3.org/2000/svg">
<path d="M20.849 19.151L16.242 14.544C17.327 13.106 17.978 11.324 17.978 9.38801C17.978 4.65201 14.124 0.799011 9.389 0.799011C4.653 0.800011 0.8 4.65301 0.8 9.38901C0.8 14.124 4.653 17.978 9.389 17.978C11.324 17.978 13.107 17.327 14.545 16.242L19.152 20.849C19.386 21.083 19.693 21.2 20 21.2C20.307 21.2 20.614 21.083 20.849 20.848C21.317 20.38 21.317 19.62 20.849 19.151ZM3.2 9.38901C3.2 5.97601 5.976 3.20001 9.389 3.20001C12.801 3.20001 15.577 5.97601 15.577 9.38801C15.577 12.8 12.801 15.576 9.389 15.576C5.976 15.577 3.2 12.801 3.2 9.38901Z" fill="#8B95A1"/>
</svg>
