<svg version="1.1" viewBox="0.0 0.0 960.0 540.0" fill="none" stroke="none" stroke-linecap="square" stroke-miterlimit="10" xmlns:xlink="http://www.w3.org/1999/xlink" xmlns="http://www.w3.org/2000/svg"><clipPath id="g19f70901b5d_0_13.0"><path d="m0 0l960.0 0l0 540.0l-960.0 0l0 -540.0z" clip-rule="nonzero"/></clipPath><g clip-path="url(#g19f70901b5d_0_13.0)"><path fill="#b4a7d6" d="m0 0l960.0 0l0 540.0l-960.0 0z" fill-rule="evenodd"/><path fill="#000000" fill-opacity="0.0" d="m41.76378 97.66929l876.4724 0l0 344.66144l-876.4724 0z" fill-rule="evenodd"/><path fill="#ffffff" d="m312.96 239.46626q0.859375 1.15625 1.0625 2.6875q0 0.578125 -0.0625 1.109375q-0.046875 0.53125 -0.140625 1.015625q-0.09375 1.046875 -1.25 2.015625q-0.671875 0.46875 -1.71875 0.953125q-0.578125 0.1875 -1.203125 0.234375q-0.625 0.046875 -1.390625 0.15625q-0.578125 0.1875 -1.25 0.1875q-0.671875 0 -1.34375 0l-4.3125 0l-20.078125 0.09375l0 0.28125l-0.09375 15.656235q0.765625 0 1.671875 0q0.921875 0 2.265625 -0.09375q3.84375 0 6.859375 0q3.03125 0 6.6875 0.09375l0.5625 0q1.0625 0 2.15625 0.046875q1.109375 0.046875 2.265625 0.046875q1.0625 0.09375 2.109375 0.25q1.0625 0.140625 2.109375 0.515625q1.734375 0.578125 2.5 1.828125q1.0625 1.25 1.0625 2.59375q0 0.578125 0 1.109375q0 0.515625 -0.203125 1.09375q-0.09375 0.765625 -1.234375 1.921875q-0.78125 0.671875 -1.828125 0.859375q-0.484375 0.203125 -1.109375 0.34375q-0.625 0.140625 -1.296875 0.234375q-0.671875 0.09375 -1.296875 0.15625q-0.625 0.046875 -1.390625 0.046875l-4.40625 0l-17.671875 0.09375l-0.28125 22.265625l0 0.765625q0 0.484375 -0.0625 0.921875q-0.046875 0.421875 -0.140625 0.90625q-0.1875 0.484375 -0.328125 1.015625q-0.140625 0.515625 -0.34375 1.0q-0.671875 1.34375 -1.25 1.828125q-1.046875 0.765625 -2.578125 1.046875q-2.59375 0.578125 -4.90625 -0.578125q-0.46875 -0.28125 -0.90625 -0.703125q-0.4375 -0.4375 -0.71875 -1.109375q-0.203125 -0.390625 -0.203125 -0.578125l-0.28125 -0.578125q-0.28125 -0.484375 -0.390625 -1.0q-0.09375 -0.53125 -0.1875 -1.015625q0 -0.484375 -0.046875 -0.953125q-0.046875 -0.484375 -0.140625 -0.96875q-0.09375 -0.765625 0 -1.53125l0 -1.546875l0.09375 -7.484375l0.09375 -13.828125q0.09375 -3.0625 0.09375 -6.234375q0 -3.171875 0 -6.53125q-0.09375 -3.453125 -0.046875 -6.1406097q0.046875 -2.6875 0.25 -5.859375l0 -0.46875q0.09375 -1.0625 0.09375 -1.96875q0 -0.921875 0.1875 -1.875q0.1875 -2.109375 0.953125 -3.75q0.6875 -1.625 1.921875 -2.296875q1.453125 -0.875 3.078125 -0.875q0.765625 0 1.25 0.109375l0 -0.109375q1.71875 0 2.78125 0q1.0625 0 2.015625 0q0.953125 0 2.109375 -0.046875q1.15625 -0.046875 3.078125 -0.046875q7.671875 -0.09375 15.171875 0l0.46875 0q1.0625 0.09375 2.15625 0.09375q1.109375 0 2.265625 0.109375q1.0625 0 2.109375 0.234375q1.0625 0.234375 2.109375 0.625q1.640625 0.484375 2.5 1.625zm7.4895935 31.10936q0 -1.15625 0 -2.640625q0 -1.484375 0.09375 -3.0625q0.09375 -1.59375 0.328125 -3.078125q0.25 -1.484375 0.734375 -2.640625q0.765625 -1.734375 2.390625 -2.359375q1.640625 -0.625 3.5625 -0.515625q2.015625 0 3.15625 0.671875q1.15625 0.671875 1.734375 1.78125q0.578125 1.09375 0.71875 2.484375q0.140625 1.390625 0.140625 2.921875q0.859375 -1.53125 2.34375 -2.484375q1.5 -0.96875 3.03125 -1.546875q1.546875 -0.578125 2.78125 -0.8125q1.25 -0.234375 1.453125 -0.234375q2.390625 -0.203125 4.359375 -0.09375q1.96875 0.09375 4.375 0.859375q1.53125 0.578125 3.15625 1.59375q1.640625 1.0 2.890625 2.34375q1.25 1.34375 1.671875 2.9375q0.4375 1.578125 -0.421875 3.296875q-1.34375 2.40625 -2.984375 2.359375q-1.625 -0.046875 -3.546875 -0.53125q-1.0625 -0.1875 -2.5 -0.859375q-1.4375 -0.671875 -2.5 -0.875q-3.265625 -0.46875 -5.765625 0.484375q-2.484375 0.953125 -4.3125 2.296875q-2.109375 1.640625 -3.640625 3.75l0 13.828125q0 2.59375 -0.046875 5.375q-0.046875 2.78125 -0.78125 5.046875q-0.71875 2.25 -2.40625 3.640625q-1.671875 1.390625 -4.828125 1.203125q-1.734375 -0.09375 -3.078125 -1.671875q-1.34375 -1.59375 -1.625 -3.125q-0.203125 -1.453125 -0.296875 -3.46875q-0.09375 -2.015625 -0.140625 -4.21875q-0.046875 -2.203125 -0.046875 -4.453125q0 -2.265625 0 -4.1875l0 -14.015625zm55.00122 -9.40625q3.171875 -1.53125 6.625 -2.203125q3.453125 -0.671875 6.859375 -0.28125q3.421875 0.375 6.625 1.8125q3.21875 1.4375 5.90625 4.03125q2.21875 2.203125 3.84375 5.328125q1.640625 3.125 2.40625 6.09375q1.625 5.28125 0.46875 10.65625q-1.140625 5.375 -3.921875 9.984375q-1.34375 2.109375 -3.3125 3.796875q-1.96875 1.671875 -4.1875 2.734375q-2.875 1.34375 -6.234375 1.859375q-3.359375 0.53125 -6.53125 0.25q-5.75 -0.28125 -10.125 -2.875q-4.375 -2.59375 -7.015625 -6.625q-2.640625 -4.03125 -3.453125 -9.171875q-0.8125 -5.140625 0.625 -10.515625q1.546875 -5.75 4.46875 -9.34375q2.921875 -3.609375 6.953125 -5.53125zm2.890625 12.859375q-1.453125 1.34375 -2.21875 3.359375q-0.765625 2.015625 -0.953125 4.1875q-0.1875 2.15625 0.328125 4.3125q0.53125 2.15625 1.6875 3.890625q0.953125 1.4375 3.453125 2.40625q2.5 0.953125 5.1875 1.140625q3.0625 0.1875 5.359375 -1.671875q2.3125 -1.875 3.515625 -4.65625q1.203125 -2.796875 1.109375 -6.046875q-0.09375 -3.265625 -1.734375 -5.953125q-1.140625 -1.921875 -3.21875 -2.828125q-2.0625 -0.921875 -4.3125 -0.96875q-2.25 -0.046875 -4.46875 0.671875q-2.203125 0.71875 -3.734375 2.15625zm38.108093 -3.734375q0 -2.21875 -0.046875 -4.703125q-0.046875 -2.5 0.8125 -4.515625q0.765625 -1.828125 2.546875 -2.640625q1.78125 -0.8125 3.5 -0.34375q1.734375 0.296875 2.6875 1.0625q0.96875 0.765625 1.390625 1.78125q0.4375 1.0 0.53125 2.296875q0.09375 1.296875 0.1875 2.546875q0.96875 -1.734375 2.40625 -2.78125q1.4375 -1.0625 2.96875 -1.734375q1.546875 -0.671875 2.9375 -0.953125q1.390625 -0.296875 2.15625 -0.296875q3.640625 0 7.234375 1.59375q3.609375 1.578125 6.015625 4.453125q1.34375 1.734375 2.0625 3.609375q0.71875 1.859375 1.046875 3.890625q0.34375 2.015625 0.4375 4.078125q0.09375 2.0625 0.203125 4.171875q0.46875 6.140625 0 12.1875q-0.109375 1.25 -0.109375 2.890625q0 1.625 -0.234375 3.21875q-0.234375 1.578125 -0.859375 2.78125q-0.625 1.1875 -2.0625 1.484375q-2.015625 0.46875 -3.3125 0.234375q-1.296875 -0.234375 -2.078125 -0.90625q-0.765625 -0.671875 -1.15625 -1.71875q-0.375 -1.0625 -0.65625 -2.40625q-0.1875 -1.0625 -0.34375 -2.453125q-0.140625 -1.390625 -0.1875 -2.828125q-0.046875 -1.453125 -0.09375 -2.84375q-0.046875 -1.390625 -0.046875 -2.53125q0 -1.828125 -0.09375 -4.03125q-0.09375 -2.21875 0 -4.140625q0 -4.5 -2.359375 -6.859375q-2.34375 -2.359375 -6.375 -1.96875q-3.078125 0.390625 -5.390625 2.453125q-2.296875 2.0625 -2.203125 5.328125q0 1.25 0 2.3125q0 1.046875 -0.046875 2.109375q-0.046875 1.046875 -0.046875 2.296875q0 1.25 0 2.78125q0 3.171875 0 6.671875q0 3.5 -0.859375 5.71875q-0.765625 2.296875 -2.59375 3.15625q-1.828125 0.875 -4.328125 -0.46875q-1.046875 -0.578125 -1.671875 -1.578125q-0.625 -1.015625 -0.96875 -2.171875q-0.328125 -1.15625 -0.421875 -2.34375q-0.09375 -1.203125 -0.203125 -2.265625q-0.28125 -3.171875 -0.328125 -5.90625q-0.046875 -2.734375 -0.046875 -5.90625l0 -13.8125zm84.186615 -8.078125q0.765625 1.828125 0.140625 4.046875q-0.609375 2.203125 -2.25 2.875q-0.859375 0.375 -2.3125 0.625q-1.4375 0.234375 -3.125 0.4375q-1.671875 0.1875 -3.296875 0.28125q-1.625 0.09375 -2.78125 0.09375q0.09375 2.875 0.1875 5.90625q0.09375 3.015625 0.1875 5.90625q0.109375 2.875 0.109375 5.515625q0 2.640625 -0.109375 4.75q0 1.4375 0 3.3125q0 1.875 -0.234375 3.609375q-0.234375 1.71875 -0.71875 3.015625q-0.484375 1.296875 -1.4375 1.6875q-2.984375 1.234375 -5.4375 0.703125q-2.4375 -0.515625 -3.5 -2.046875q-0.765625 -1.25 -1.15625 -2.921875q-0.375 -1.6875 -0.515625 -3.46875q-0.140625 -1.78125 -0.09375 -3.453125q0.046875 -1.6875 0.046875 -2.9375q0.09375 -4.03125 0.140625 -9.15625q0.046875 -5.140625 0.046875 -10.328125l-1.4375 0q-1.15625 0 -2.9375 -0.046875q-1.765625 -0.046875 -3.546875 -0.28125q-1.765625 -0.25 -3.3125 -0.671875q-1.53125 -0.4375 -2.203125 -1.296875q-1.0625 -1.25 -1.296875 -2.6875q-0.234375 -1.4375 0.1875 -2.734375q0.4375 -1.296875 1.390625 -2.296875q0.96875 -1.015625 2.21875 -1.3125q1.71875 -0.484375 4.890625 -0.53125q3.171875 -0.046875 5.953125 0.046875q-0.09375 -0.953125 -0.09375 -1.859375q0 -0.921875 -0.09375 -1.7812347q-0.09375 -1.15625 -0.09375 -2.921875q0 -1.78125 0.234375 -3.546875q0.234375 -1.78125 0.8125 -3.359375q0.578125 -1.59375 1.640625 -2.453125q1.4375 -1.15625 2.921875 -1.296875q1.484375 -0.15625 2.78125 0.421875q1.296875 0.578125 2.203125 1.6875q0.921875 1.09375 1.296875 2.4375q0.296875 1.15625 0.484375 2.75q0.1875 1.578125 0.234375 3.3125q0.0625 1.71875 0.0625 3.453125q0 1.7187347 0 3.1562347l0.953125 0q1.4375 0 3.359375 -0.09375q1.921875 -0.09375 3.78125 0.109375q1.875 0.1875 3.40625 0.90625q1.546875 0.71875 2.3125 2.4375zm38.698822 -2.484375q1.625 -0.390625 3.296875 0.1875q1.6875 0.578125 3.125 1.921875q0.671875 0.671875 1.0 1.640625q0.34375 0.953125 0.34375 2.0q0 1.15625 -0.34375 2.453125q-0.328125 1.296875 -0.90625 1.96875q-0.765625 0.859375 -2.015625 1.34375q-1.25 0.484375 -2.40625 0.625q-1.140625 0.140625 -1.953125 0.140625q-0.8125 0 -0.921875 0l-18.8125 0.09375q-1.15625 0.09375 -2.359375 0.15625q-1.1875 0.046875 -2.34375 -0.09375q-1.15625 -0.15625 -2.171875 -0.578125q-0.9999695 -0.4375 -1.8593445 -1.203125q-1.0625 -1.0625 -1.640625 -2.0625q-0.5625 -1.015625 -0.5625 -2.359375q0 -1.625 0.90625 -3.203125q0.90625 -1.59375 2.5468445 -2.171875q2.015625 -0.859375 4.171875 -0.8125q2.15625 0.046875 4.375 -0.046875l18.53125 0zm28.113403 -11.624985l-0.1875 15.07811l3.84375 0q3.9375 -0.09375 7.0 -0.09375q3.078125 0 6.828125 0.09375l0.46875 0q1.15625 0 2.25 0.046875q1.109375 0.046875 2.171875 0.046875q1.15625 0.09375 2.203125 0.34375q1.0625 0.234375 2.125 0.515625q1.625 0.578125 2.6875 1.734375q0.953125 1.25 0.953125 2.78125q0 0.484375 0 1.109375q0 0.625 -0.1875 1.09375q-0.203125 1.0625 -1.25 1.921875q-0.484375 0.671875 -1.828125 0.96875q-1.25 0.375 -2.5 0.46875q-1.34375 0.296875 -2.6875 0.296875l-4.5 0l-17.765625 0.09375l-0.1875 18.8125l19.09375 0.203125l4.515625 0q0.765625 0 1.4375 0q0.671875 0 1.25 0.09375q0.765625 0.1875 1.390625 0.234375q0.625 0.046875 1.203125 0.234375q1.15625 0.390625 1.921875 1.0625q0.953125 0.953125 1.25 2.015625q0.09375 0.484375 0.140625 1.015625q0.046875 0.515625 -0.046875 1.09375q0 1.546875 -0.96875 2.78125q-1.140625 1.34375 -2.6875 1.734375q-2.015625 0.859375 -4.40625 0.859375q-1.0625 0.09375 -2.21875 0.09375q-1.140625 0 -2.203125 0.109375l-0.578125 0q-7.484375 0.1875 -15.546875 0q-1.921875 0 -3.078125 -0.0625q-1.140625 -0.046875 -2.0625 -0.046875q-0.90625 0 -1.875 0q-0.953125 0 -2.484375 0q-2.21875 0.203125 -3.65625 -0.765625q-1.046875 -0.671875 -1.625 -1.8125q-0.296875 -0.296875 -0.296875 -0.578125q-0.09375 -0.203125 -0.1875 -0.296875q-0.09375 -0.09375 -0.1875 -0.28125q-0.203125 -0.484375 -0.296875 -1.0q-0.09375 -0.53125 -0.09375 -1.015625q-0.09375 -0.484375 -0.140625 -0.953125q-0.046875 -0.484375 -0.140625 -0.96875l0 -1.53125q0 -0.390625 0.046875 -0.765625q0.046875 -0.390625 0.046875 -0.78125l0 -7.484375l0.1875 -13.828125l0 -12.765625q0 -3.453125 0.046875 -6.1406097q0.046875 -2.6875 0.140625 -5.859375l0 -0.484375q0.109375 -1.046875 0.15625 -1.953125q0.046875 -0.921875 0.046875 -1.875q0.09375 -1.921875 1.046875 -3.75q0.390625 -0.765625 0.8125 -1.34375q0.4375 -0.578125 1.203125 -0.953125q1.453125 -0.875 2.984375 -0.875q0.765625 0 1.15625 0.09375l0 -0.09375q1.71875 0 2.765625 0q1.0625 0 2.0625 0q1.015625 0 2.171875 -0.046875q1.15625 -0.046875 3.171875 -0.046875q3.84375 -0.09375 7.296875 -0.09375q3.453125 0 7.09375 0.09375l0.390625 0q1.0625 0.09375 2.203125 0.09375q1.15625 0 2.21875 0.09375q1.046875 0 2.09375 0.25q1.0625 0.234375 2.125 0.625q1.625 0.46875 2.6875 1.625q0.859375 1.34375 0.859375 2.6875q0 0.578125 0 1.109375q0 0.53125 -0.1875 1.0q-0.09375 0.96875 -1.15625 2.015625q-0.375 0.203125 -0.8125 0.5q-0.4375 0.28125 -1.0 0.46875q-0.578125 0.1875 -1.203125 0.234375q-0.625 0.046875 -1.203125 0.140625q-0.765625 0.203125 -1.390625 0.203125q-0.625 0 -1.390625 0l-4.328125 0l-19.203125 0.09375l0 0.28125zm39.657104 22.187485q0 -2.21875 -0.046875 -4.703125q-0.046875 -2.5 0.8125 -4.515625q0.765625 -1.828125 2.546875 -2.640625q1.78125 -0.8125 3.5 -0.34375q1.734375 0.296875 2.6875 1.0625q0.96875 0.765625 1.390625 1.78125q0.4375 1.0 0.53125 2.296875q0.09375 1.296875 0.1875 2.546875q0.96875 -1.734375 2.40625 -2.78125q1.4375 -1.0625 2.96875 -1.734375q1.546875 -0.671875 2.9375 -0.953125q1.390625 -0.296875 2.15625 -0.296875q3.640625 0 7.234375 1.59375q3.609375 1.578125 6.015625 4.453125q1.34375 1.734375 2.0625 3.609375q0.71875 1.859375 1.046875 3.890625q0.34375 2.015625 0.4375 4.078125q0.09375 2.0625 0.203125 4.171875q0.46875 6.140625 0 12.1875q-0.109375 1.25 -0.109375 2.890625q0 1.625 -0.234375 3.21875q-0.234375 1.578125 -0.859375 2.78125q-0.625 1.1875 -2.0625 1.484375q-2.015625 0.46875 -3.3125 0.234375q-1.296875 -0.234375 -2.078125 -0.90625q-0.765625 -0.671875 -1.15625 -1.71875q-0.375 -1.0625 -0.65625 -2.40625q-0.1875 -1.0625 -0.34375 -2.453125q-0.140625 -1.390625 -0.1875 -2.828125q-0.046875 -1.453125 -0.09375 -2.84375q-0.046875 -1.390625 -0.046875 -2.53125q0 -1.828125 -0.09375 -4.03125q-0.09375 -2.21875 0 -4.140625q0 -4.5 -2.359375 -6.859375q-2.34375 -2.359375 -6.375 -1.96875q-3.078125 0.390625 -5.390625 2.453125q-2.296875 2.0625 -2.203125 5.328125q0 1.25 0 2.3125q0 1.046875 -0.046875 2.109375q-0.046875 1.046875 -0.046875 2.296875q0 1.25 0 2.78125q0 3.171875 0 6.671875q0 3.5 -0.859375 5.71875q-0.765625 2.296875 -2.59375 3.15625q-1.828125 0.875 -4.328125 -0.46875q-1.046875 -0.578125 -1.671875 -1.578125q-0.625 -1.015625 -0.96875 -2.171875q-0.328125 -1.15625 -0.421875 -2.34375q-0.09375 -1.203125 -0.203125 -2.265625q-0.28125 -3.171875 -0.328125 -5.90625q-0.046875 -2.734375 -0.046875 -5.90625l0 -13.8125zm76.99536 -32.843735q1.8125 -0.46875 3.203125 -0.125q1.40625 0.328125 2.40625 1.296875q1.015625 0.953125 1.53125 2.390625q0.53125 1.4375 0.53125 3.15625q0.09375 4.8125 0.046875 7.5q-0.046875 2.6875 -0.046875 4.7031097l0 29.46875q0 5.1875 0 8.640625q0 3.453125 -0.34375 5.625q-0.328125 2.15625 -1.140625 3.21875q-0.8125 1.046875 -2.453125 1.46875q-1.625 0.4375 -4.265625 0.4375q-2.640625 0 -6.578125 0q-10.375 0 -16.375 -4.890625q-6.0 -4.90625 -6.375 -15.5625q-0.1875 -4.609375 1.15625 -8.4375q1.34375 -3.84375 3.984375 -6.578125q2.640625 -2.734375 6.515625 -4.21875q3.890625 -1.5 8.890625 -1.40625l5.28125 0l0 -17.17186q0 -1.546875 0 -3.03125q0 -1.484375 0.28125 -2.78125q0.296875 -1.296875 1.15625 -2.25q0.859375 -0.96875 2.59375 -1.453125zm-16.703125 53.281235q2.015625 2.78125 7.296875 3.078125q1.046875 0.09375 2.0 0.046875q0.96875 -0.046875 1.734375 -0.234375q0.859375 -0.109375 1.640625 -0.296875l0 -17.75q-3.359375 -0.578125 -6.109375 -0.71875q-2.734375 -0.15625 -5.421875 1.953125q-1.4375 1.15625 -2.203125 2.9375q-0.765625 1.765625 -0.859375 3.734375q-0.09375 1.96875 0.375 3.890625q0.484375 1.921875 1.546875 3.359375z" fill-rule="nonzero"/><path fill="#000000" fill-opacity="0.0" d="m337.96326 329.79266l262.96063 0l0 42.015747l-262.96063 0z" fill-rule="evenodd"/><path fill="#ffffff" d="m434.45306 344.91577q0.046875 -0.671875 0.421875 -1.078125q0.375 -0.40625 1.09375 -0.21875q0.328125 0.09375 0.484375 0.28125q0.171875 0.1875 0.234375 0.4375q0.0625 0.25 0.0625 0.546875q0 0.28125 0 0.5625l0 2.578125q-0.015625 0.140625 -0.015625 0.28125q0.015625 0.140625 0.015625 0.25l0 0.25l0.46875 0q0.203125 0 0.390625 0q0.203125 0 0.359375 -0.015625q1.015625 0 1.75 0.296875q0.75 0.296875 1.203125 0.828125q0.453125 0.53125 0.671875 1.265625q0.21875 0.734375 0.1875 1.609375q-0.015625 1.046875 -0.328125 1.796875q-0.3125 0.75 -0.890625 1.234375q-0.578125 0.484375 -1.390625 0.71875q-0.8125 0.234375 -1.828125 0.234375q-1.15625 0 -1.75 -0.03125q-0.59375 -0.015625 -0.84375 -0.328125q-0.25 -0.3125 -0.28125 -1.09375q-0.015625 -0.796875 -0.015625 -2.296875q0 -1.46875 0 -2.875q0.015625 -1.421875 0 -2.859375q0 -0.1875 -0.015625 -0.390625q0 -0.203125 0 -0.46875q0 -0.265625 0 -0.625q0 -0.359375 0.015625 -0.890625zm3.484375 9.765625q1.03125 -0.0625 1.421875 -0.5625q0.203125 -0.28125 0.3125 -0.671875q0.125 -0.390625 0.09375 -0.78125q-0.015625 -0.390625 -0.15625 -0.75q-0.140625 -0.375 -0.4375 -0.609375q-0.25 -0.234375 -0.515625 -0.328125q-0.265625 -0.109375 -0.546875 -0.125q-0.28125 -0.03125 -0.59375 -0.015625q-0.3125 0 -0.734375 0.015625l0 2.234375l-0.03125 1.546875q0.1875 0.03125 0.390625 0.046875q0.359375 0.03125 0.796875 0zm13.367249 -6.296875q0.171875 0.265625 0.140625 0.5625q0 0.4375 -0.140625 0.75q-0.046875 0.09375 -0.109375 0.25q-0.0625 0.140625 -0.125 0.3125q-0.0625 0.171875 -0.140625 0.328125q-0.078125 0.140625 -0.109375 0.21875l-0.046875 0.078125q-0.25 0.578125 -0.5 1.125q-0.234375 0.546875 -0.53125 1.15625q-0.3125 0.59375 -0.578125 1.171875q-0.265625 0.5625 -0.53125 1.109375q-0.078125 0.140625 -0.140625 0.28125q-0.046875 0.140625 -0.140625 0.296875l-0.890625 1.921875q-0.25 0.484375 -0.46875 0.953125q-0.203125 0.46875 -0.46875 0.921875q-0.046875 0.09375 -0.09375 0.171875q-0.046875 0.09375 -0.09375 0.1875q-0.125 0.21875 -0.375 0.4375q-0.25 0.21875 -0.53125 0.234375q-0.515625 0.03125 -0.875 -0.296875q-0.234375 -0.125 -0.359375 -0.375q-0.078125 -0.171875 -0.078125 -0.421875q0.015625 -0.125 0.03125 -0.234375q0.015625 -0.09375 0.03125 -0.1875q0.03125 -0.09375 0.046875 -0.1875q0.015625 -0.09375 0.0625 -0.140625q0.046875 -0.15625 0.09375 -0.15625l1.359375 -2.9375q-0.09375 -0.203125 -0.1875 -0.421875q-0.09375 -0.21875 -0.171875 -0.390625q-0.234375 -0.578125 -0.515625 -1.21875q-0.265625 -0.640625 -0.546875 -1.28125q-0.28125 -0.640625 -0.578125 -1.25q-0.296875 -0.625 -0.59375 -1.1875q-0.109375 -0.1875 -0.203125 -0.390625q-0.09375 -0.21875 -0.15625 -0.4375q-0.046875 -0.21875 -0.03125 -0.4375q0.015625 -0.234375 0.171875 -0.453125q0.140625 -0.28125 0.375 -0.390625q0.25 -0.125 0.515625 -0.109375q0.28125 0 0.515625 0.109375q0.25 0.109375 0.40625 0.296875q0.3125 0.34375 0.5 0.75q0.1875 0.40625 0.34375 0.84375q0.359375 0.734375 0.734375 1.5625q0.375 0.8125 0.75 1.609375l0.96875 -2.0625q0.140625 -0.296875 0.265625 -0.578125q0.125 -0.28125 0.25 -0.53125q0.15625 -0.328125 0.296875 -0.65625q0.140625 -0.34375 0.328125 -0.625q0.03125 -0.0625 0.0625 -0.125q0.046875 -0.0625 0.078125 -0.125q0.171875 -0.234375 0.296875 -0.359375q0.09375 -0.078125 0.15625 -0.125q0.078125 -0.046875 0.171875 -0.0625q0.125 -0.03125 0.25 -0.046875q0.125 -0.015625 0.234375 0.015625q0.1875 0.046875 0.4375 0.15625q0.28125 0.125 0.4375 0.390625z" fill-rule="nonzero"/><path fill="#ffffff" d="m465.88348 353.1814q0 0.609375 -0.03125 1.296875q-0.015625 0.6875 -0.0625 1.28125q0 0.5625 -0.046875 1.125q-0.046875 0.484375 -0.15625 1.046875q-0.109375 0.578125 -0.3125 1.0625q-0.265625 0.625 -0.71875 1.078125q-0.4375 0.46875 -1.15625 0.671875q-0.59375 0.140625 -1.125 0.1875q-0.515625 0.046875 -1.109375 -0.015625q-0.390625 -0.0625 -0.84375 -0.21875q-0.4375 -0.15625 -0.828125 -0.40625q-0.390625 -0.234375 -0.703125 -0.5625q-0.296875 -0.328125 -0.40625 -0.734375q-0.125 -0.515625 -0.015625 -0.890625q0.125 -0.359375 0.390625 -0.53125q0.265625 -0.171875 0.609375 -0.0625q0.359375 0.125 0.6875 0.578125q0.21875 0.34375 0.640625 0.546875q0.4375 0.203125 0.921875 0.234375q0.484375 0.046875 0.9375 -0.109375q0.453125 -0.15625 0.71875 -0.546875q0.1875 -0.28125 0.265625 -0.8125q0.09375 -0.515625 0.109375 -1.015625q-0.953125 0.390625 -1.953125 0.28125q-1.0 -0.109375 -1.8125 -0.609375q-0.8125 -0.515625 -1.3125 -1.375q-0.484375 -0.875 -0.40625 -1.984375q0.0625 -0.953125 0.40625 -1.78125q0.34375 -0.84375 1.140625 -1.40625q0.65625 -0.453125 1.46875 -0.578125q0.828125 -0.140625 1.59375 -0.140625q0.453125 0 0.890625 0q0.4375 0 0.796875 0.109375q0.375 0.109375 0.671875 0.375q0.3125 0.25 0.453125 0.765625q0.25 0.78125 0.265625 1.546875q0.03125 0.765625 0.03125 1.59375zm-3.59375 1.546875q0.1875 0 0.359375 -0.03125q0.171875 -0.03125 0.34375 -0.09375q0.3125 -0.109375 0.46875 -0.296875q0.171875 -0.1875 0.21875 -0.421875q0.0625 -0.234375 0.046875 -0.515625q0 -0.28125 0 -0.578125q0 -0.234375 -0.015625 -0.53125q0 -0.296875 -0.046875 -0.5625q-0.03125 -0.28125 -0.109375 -0.484375q-0.078125 -0.203125 -0.21875 -0.265625q-0.265625 -0.078125 -0.609375 -0.09375q-0.328125 -0.03125 -0.671875 0q-0.328125 0.015625 -0.640625 0.125q-0.296875 0.09375 -0.515625 0.265625q-0.265625 0.25 -0.421875 0.609375q-0.15625 0.34375 -0.1875 0.734375q-0.015625 0.390625 0.0625 0.765625q0.09375 0.375 0.3125 0.671875q0.265625 0.375 0.703125 0.546875q0.453125 0.15625 0.921875 0.15625zm7.5191345 -6.453125q0.609375 -0.296875 1.28125 -0.421875q0.671875 -0.140625 1.328125 -0.0625q0.671875 0.078125 1.296875 0.359375q0.625 0.28125 1.140625 0.78125q0.4375 0.4375 0.75 1.046875q0.3125 0.59375 0.46875 1.171875q0.3125 1.03125 0.09375 2.078125q-0.21875 1.046875 -0.765625 1.9375q-0.265625 0.40625 -0.65625 0.734375q-0.375 0.328125 -0.796875 0.53125q-0.5625 0.265625 -1.21875 0.359375q-0.65625 0.109375 -1.265625 0.046875q-1.125 -0.046875 -1.96875 -0.546875q-0.84375 -0.515625 -1.359375 -1.296875q-0.515625 -0.78125 -0.671875 -1.78125q-0.15625 -1.0 0.125 -2.046875q0.296875 -1.109375 0.859375 -1.8125q0.578125 -0.703125 1.359375 -1.078125zm0.5625 2.5q-0.28125 0.265625 -0.4375 0.65625q-0.140625 0.390625 -0.1875 0.8125q-0.03125 0.421875 0.0625 0.84375q0.109375 0.421875 0.328125 0.75q0.1875 0.28125 0.671875 0.46875q0.484375 0.1875 1.015625 0.21875q0.59375 0.046875 1.03125 -0.3125q0.453125 -0.375 0.6875 -0.90625q0.234375 -0.546875 0.21875 -1.171875q-0.015625 -0.640625 -0.34375 -1.171875q-0.21875 -0.375 -0.625 -0.546875q-0.390625 -0.171875 -0.828125 -0.1875q-0.4375 -0.015625 -0.875 0.125q-0.421875 0.140625 -0.71875 0.421875zm13.838593 3.375q0.21875 -0.046875 0.453125 -0.0625q0.234375 -0.03125 0.421875 0.046875q0.203125 0.078125 0.328125 0.265625q0.140625 0.171875 0.140625 0.484375q0 0.21875 -0.109375 0.4375q-0.109375 0.203125 -0.28125 0.375q-0.171875 0.15625 -0.375 0.28125q-0.203125 0.125 -0.390625 0.1875q-0.546875 0.25 -1.25 0.390625q-0.6875 0.125 -1.4375 0.078125q-1.015625 -0.03125 -1.9375 -0.390625q-0.921875 -0.375 -1.4375 -1.203125q-0.484375 -0.828125 -0.578125 -1.828125q-0.09375 -1.015625 0.09375 -1.90625q0.203125 -1.09375 0.6875 -1.765625q0.5 -0.6875 1.1875 -1.09375q0.84375 -0.484375 1.890625 -0.5q1.046875 -0.015625 2.0 0.40625q0.625 0.28125 1.125 0.765625q0.515625 0.46875 0.765625 1.140625q0.078125 0.171875 0.125 0.421875q0.046875 0.234375 0.0625 0.5q0.03125 0.265625 0 0.53125q-0.015625 0.265625 -0.09375 0.46875q-0.109375 0.328125 -0.28125 0.515625q-0.15625 0.1875 -0.421875 0.28125q-0.265625 0.09375 -0.625 0.125q-0.359375 0.03125 -0.859375 0.046875q-0.453125 0.015625 -0.84375 0.015625q-0.390625 0 -0.8125 0q-0.40625 -0.015625 -0.84375 -0.015625q-0.4375 -0.015625 -0.984375 -0.03125q-0.046875 0.359375 0.109375 0.640625q0.15625 0.265625 0.4375 0.453125q0.28125 0.171875 0.625 0.265625q0.359375 0.09375 0.703125 0.109375q0.625 0.03125 1.203125 -0.109375q0.578125 -0.140625 1.203125 -0.328125zm-0.796875 -3.609375q-0.359375 -0.40625 -0.75 -0.59375q-0.296875 -0.140625 -0.625 -0.125q-0.328125 0 -0.625 0.09375q-0.546875 0.140625 -0.921875 0.5625q-0.03125 0.046875 -0.125 0.1875q-0.09375 0.140625 -0.1875 0.296875q-0.078125 0.140625 -0.125 0.265625q-0.03125 0.125 0.046875 0.125l3.65625 0q-0.015625 -0.25 -0.09375 -0.421875q-0.078125 -0.1875 -0.25 -0.390625zm11.45874 1.734375q-0.03125 0.609375 -0.078125 1.234375q-0.03125 0.625 -0.1875 1.203125q-0.15625 0.578125 -0.484375 1.046875q-0.328125 0.46875 -0.921875 0.75q-0.515625 0.265625 -1.125 0.359375q-0.59375 0.109375 -1.1875 0.078125q-0.59375 -0.015625 -1.15625 -0.171875q-0.5625 -0.15625 -1.015625 -0.4375q-0.4375 -0.28125 -0.71875 -0.71875q-0.28125 -0.453125 -0.4375 -0.96875q-0.15625 -0.53125 -0.21875 -1.09375q-0.046875 -0.5625 -0.078125 -1.046875q-0.0625 -1.28125 0 -2.53125q0 -0.25 0 -0.546875q0 -0.3125 0.046875 -0.609375q0.046875 -0.296875 0.15625 -0.546875q0.125 -0.25 0.375 -0.390625q0.5625 -0.296875 1.03125 -0.03125q0.484375 0.265625 0.578125 1.078125q0.0625 0.4375 0.046875 0.953125q-0.015625 0.515625 0.03125 0.953125q0.015625 0.625 0.03125 1.375q0.015625 0.734375 0.203125 1.3125q0.203125 0.578125 0.65625 0.875q0.46875 0.28125 1.375 0.015625q0.4375 -0.125 0.578125 -0.640625q0.140625 -0.53125 0.140625 -1.5625q0 -0.4375 -0.03125 -0.984375q-0.015625 -0.546875 -0.015625 -1.078125q0 -0.53125 0.03125 -0.984375q0.03125 -0.453125 0.109375 -0.703125q0.09375 -0.328125 0.390625 -0.5q0.296875 -0.171875 0.625 -0.171875q0.34375 -0.015625 0.640625 0.140625q0.296875 0.140625 0.40625 0.484375q0.125 0.296875 0.15625 0.75q0.046875 0.453125 0.0625 0.984375q0.03125 0.53125 0.015625 1.09375q0 0.546875 -0.03125 1.03125zm1.9489136 -2.21875q0 -0.4375 -0.015625 -0.921875q0 -0.484375 0.171875 -0.875q0.140625 -0.359375 0.484375 -0.515625q0.34375 -0.15625 0.6875 -0.0625q0.328125 0.0625 0.515625 0.21875q0.1875 0.140625 0.265625 0.34375q0.09375 0.1875 0.109375 0.4375q0.015625 0.25 0.03125 0.5q0.1875 -0.34375 0.46875 -0.546875q0.28125 -0.203125 0.578125 -0.328125q0.296875 -0.140625 0.5625 -0.1875q0.28125 -0.0625 0.4375 -0.0625q0.703125 0 1.390625 0.3125q0.703125 0.296875 1.171875 0.859375q0.265625 0.34375 0.40625 0.703125q0.140625 0.359375 0.203125 0.75q0.0625 0.390625 0.078125 0.796875q0.03125 0.40625 0.046875 0.8125q0.09375 1.1875 0 2.375q-0.015625 0.234375 -0.015625 0.5625q0 0.3125 -0.046875 0.625q-0.046875 0.296875 -0.171875 0.53125q-0.125 0.234375 -0.40625 0.296875q-0.390625 0.09375 -0.640625 0.046875q-0.25 -0.046875 -0.40625 -0.171875q-0.140625 -0.140625 -0.21875 -0.34375q-0.078125 -0.203125 -0.125 -0.46875q-0.046875 -0.203125 -0.078125 -0.46875q-0.015625 -0.28125 -0.03125 -0.5625q0 -0.28125 -0.015625 -0.546875q-0.015625 -0.265625 -0.015625 -0.5q0 -0.34375 -0.015625 -0.765625q-0.015625 -0.4375 0 -0.8125q0 -0.875 -0.453125 -1.328125q-0.453125 -0.46875 -1.234375 -0.390625q-0.609375 0.078125 -1.0625 0.484375q-0.4375 0.390625 -0.421875 1.03125q0 0.234375 0 0.453125q0 0.203125 -0.015625 0.40625q0 0.203125 0 0.453125q0 0.234375 0 0.53125q0 0.609375 0 1.296875q0 0.6875 -0.171875 1.109375q-0.140625 0.453125 -0.5 0.609375q-0.359375 0.171875 -0.84375 -0.09375q-0.203125 -0.109375 -0.328125 -0.296875q-0.109375 -0.203125 -0.1875 -0.421875q-0.0625 -0.21875 -0.078125 -0.453125q-0.015625 -0.234375 -0.03125 -0.4375q-0.0625 -0.625 -0.078125 -1.15625q0 -0.53125 0 -1.140625l0 -2.6875z" fill-rule="nonzero"/></g></svg>