<svg version="1.1" viewBox="0.0 0.0 960.0 540.0" fill="none" stroke="none" stroke-linecap="square" stroke-miterlimit="10" xmlns:xlink="http://www.w3.org/1999/xlink" xmlns="http://www.w3.org/2000/svg"><clipPath id="g19f70901b5d_0_9.0"><path d="m0 0l960.0 0l0 540.0l-960.0 0l0 -540.0z" clip-rule="nonzero"/></clipPath><g clip-path="url(#g19f70901b5d_0_9.0)"><path fill="#d9d9d9" d="m0 0l960.0 0l0 540.0l-960.0 0z" fill-rule="evenodd"/><path fill="#000000" fill-opacity="0.0" d="m41.76378 97.66929l876.4724 0l0 344.66144l-876.4724 0z" fill-rule="evenodd"/><path fill="#000000" d="m461.04666 240.43501q0.375 1.828125 0 3.84375q-0.203125 0.953125 -0.34375 1.875q-0.140625 0.90625 -0.328125 1.859375l-0.109375 0.390625q-1.34375 5.953125 -3.03125 12.531235q-1.671875 6.5625 -3.015625 12.421875q-1.140625 4.796875 -2.390625 10.5625q-1.25 5.765625 -2.59375 10.5625q-0.484375 1.625 -1.015625 3.265625q-0.515625 1.625 -1.296875 3.265625q-0.671875 1.4375 -1.578125 2.546875q-0.90625 1.09375 -2.0625 1.625q-1.15625 0.53125 -2.453125 0.375q-1.296875 -0.140625 -2.828125 -1.1875q-2.296875 -1.640625 -3.40625 -4.515625q-1.109375 -2.875 -2.25 -5.28125q-0.390625 -0.671875 -1.15625 -2.96875q-0.765625 -2.3125 -1.640625 -5.046875q-0.859375 -2.734375 -1.671875 -5.28125q-0.8125 -2.546875 -1.390625 -3.796875q-0.875 2.125 -1.734375 4.8125q-0.859375 2.6875 -1.625 5.28125q-0.765625 2.578125 -1.390625 4.65625q-0.625 2.0625 -0.921875 3.015625q-0.765625 1.921875 -1.6875 4.234375q-0.90625 2.296875 -2.203125 3.9375q-1.296875 1.625 -3.125 2.140625q-1.8125 0.53125 -4.3125 -1.09375q-1.921875 -1.15625 -2.6875 -3.265625q-0.484375 -1.34375 -0.96875 -2.59375q-0.46875 -1.25 -0.75 -2.59375l-1.921875 -7.203125l-3.9375 -15.453125q-0.765625 -2.96875 -1.484375 -6.09375q-0.71875 -3.125 -1.6875 -6.484375q-0.484375 -1.625 -0.828125 -3.203125q-0.328125 -1.5937347 -0.671875 -3.4531097q-0.328125 -1.875 -0.765625 -4.28125q-0.421875 -2.40625 -1.0 -5.5625q-0.1875 -1.0625 -0.234375 -1.96875q-0.046875 -0.921875 0.140625 -1.875q0.1875 -1.4375 1.34375 -2.5q0.484375 -0.484375 1.15625 -0.765625q0.671875 -0.296875 1.4375 -0.484375q1.15625 -0.375 2.40625 -0.375q1.140625 0 2.390625 0.765625q0.859375 0.46875 1.34375 1.25l1.15625 2.015625q0.1875 0.671875 0.375 1.203125q0.203125 0.515625 0.390625 1.09375q0.1875 0.671875 0.28125 1.203125q0.109375 0.53125 0.203125 1.0q0.859375 5.0 2.109375 9.703125q1.25 4.7031097 2.296875 9.031235q0.390625 1.71875 0.96875 4.265625q0.578125 2.546875 1.140625 5.28125q0.578125 2.734375 1.15625 5.234375q0.578125 2.484375 1.15625 3.9375q1.25 -4.328125 2.546875 -8.640625q1.296875 -4.328125 2.828125 -8.734375q0.765625 -2.3125 1.578125 -4.1875q0.828125 -1.875 1.875 -3.109375q1.0625 -1.25 2.40625 -1.6249847q1.34375 -0.390625 3.171875 0.28123474q1.625 0.671875 2.875 2.875q1.25 2.203125 2.203125 4.515625q0.875 2.109375 1.6875 4.46875q0.8125 2.34375 1.625 4.609375q0.8125 2.25 1.578125 4.265625q0.78125 2.015625 1.546875 3.453125q0.28125 -1.0625 0.65625 -2.6875q0.390625 -1.640625 0.828125 -3.5q0.4375 -1.875 0.8125 -3.703125q0.390625 -1.828125 0.78125 -3.359375q1.234375 -5.1875 2.578125 -10.40625q1.34375 -5.2343597 2.59375 -10.32811l0.484375 -1.640625q0.1875 -0.46875 0.234375 -1.0q0.046875 -0.53125 0.25 -1.203125q0.1875 -0.578125 0.375 -1.09375q0.203125 -0.53125 0.390625 -1.203125q0.1875 -0.484375 0.421875 -1.015625q0.25 -0.53125 0.625 -1.0q0.296875 -0.484375 0.671875 -0.765625q0.390625 -0.296875 0.78125 -0.484375q1.34375 -0.765625 2.296875 -0.765625q1.25 0 2.40625 0.375q1.53125 0.296875 2.78125 1.25q0.953125 0.96875 1.15625 2.5zm21.105713 7.671875l-0.1875 15.07811l3.84375 0q3.9375 -0.09375 7.0 -0.09375q3.078125 0 6.828125 0.09375l0.46875 0q1.15625 0 2.25 0.046875q1.109375 0.046875 2.171875 0.046875q1.15625 0.09375 2.203125 0.34375q1.0625 0.234375 2.125 0.515625q1.625 0.578125 2.6875 1.734375q0.9530945 1.25 0.9530945 2.78125q0 0.484375 0 1.109375q0 0.625 -0.1875 1.09375q-0.203125 1.0625 -1.2499695 1.921875q-0.484375 0.671875 -1.828125 0.96875q-1.25 0.375 -2.5 0.46875q-1.34375 0.296875 -2.6875 0.296875l-4.5 0l-17.765625 0.09375l-0.1875 18.8125l19.09375 0.203125l4.515625 0q0.765625 0 1.4375 0q0.671875 0 1.25 0.09375q0.765625 0.1875 1.390625 0.234375q0.625 0.046875 1.203125 0.234375q1.15625 0.390625 1.9218445 1.0625q0.953125 0.953125 1.25 2.015625q0.09375 0.484375 0.140625 1.015625q0.046875 0.515625 -0.046875 1.09375q0 1.546875 -0.96875 2.78125q-1.1405945 1.34375 -2.6874695 1.734375q-2.015625 0.859375 -4.40625 0.859375q-1.0625 0.09375 -2.21875 0.09375q-1.140625 0 -2.203125 0.109375l-0.578125 0q-7.484375 0.1875 -15.546875 0q-1.921875 0 -3.078125 -0.0625q-1.140625 -0.046875 -2.0625 -0.046875q-0.90625 0 -1.875 0q-0.953125 0 -2.484375 0q-2.21875 0.203125 -3.65625 -0.765625q-1.046875 -0.671875 -1.625 -1.8125q-0.296875 -0.296875 -0.296875 -0.578125q-0.09375 -0.203125 -0.1875 -0.296875q-0.09375 -0.09375 -0.1875 -0.28125q-0.203125 -0.484375 -0.296875 -1.0q-0.09375 -0.53125 -0.09375 -1.015625q-0.09375 -0.484375 -0.140625 -0.953125q-0.046875 -0.484375 -0.140625 -0.96875l0 -1.53125q0 -0.390625 0.046875 -0.765625q0.046875 -0.390625 0.046875 -0.78125l0 -7.484375l0.1875 -13.828125l0 -12.765625q0 -3.453125 0.046875 -6.1406097q0.046875 -2.6875 0.140625 -5.859375l0 -0.484375q0.109375 -1.046875 0.15625 -1.953125q0.046875 -0.921875 0.046875 -1.875q0.09375 -1.921875 1.046875 -3.75q0.390625 -0.765625 0.8125 -1.34375q0.4375 -0.578125 1.203125 -0.953125q1.453125 -0.875 2.984375 -0.875q0.765625 0 1.15625 0.09375l0 -0.09375q1.71875 0 2.765625 0q1.0625 0 2.0625 0q1.015625 0 2.171875 -0.046875q1.15625 -0.046875 3.171875 -0.046875q3.84375 -0.09375 7.296875 -0.09375q3.453125 0 7.09375 0.09375l0.390625 0q1.0625 0.09375 2.203125 0.09375q1.15625 0 2.21875 0.09375q1.046875 0 2.09375 0.25q1.0625 0.234375 2.125 0.625q1.6249695 0.46875 2.6874695 1.625q0.859375 1.34375 0.859375 2.6875q0 0.578125 0 1.109375q0 0.53125 -0.1875 1.0q-0.09375 0.96875 -1.15625 2.015625q-0.375 0.203125 -0.8124695 0.5q-0.4375 0.28125 -1.0 0.46875q-0.578125 0.1875 -1.203125 0.234375q-0.625 0.046875 -1.203125 0.140625q-0.765625 0.203125 -1.390625 0.203125q-0.625 0 -1.390625 0l-4.328125 0l-19.203125 0.09375l0 0.28125zm77.375824 21.031235q2.796875 1.828125 4.765625 4.28125q1.96875 2.4375 3.109375 5.984375q1.25 3.9375 1.296875 7.921875q0.046875 3.984375 -1.4375 7.390625q-1.484375 3.40625 -4.703125 5.953125q-3.21875 2.546875 -8.40625 3.609375q-2.78125 0.671875 -6.53125 1.046875q-3.734375 0.390625 -6.703125 0.390625q-3.75 0.09375 -7.734375 0.046875q-3.984375 -0.046875 -7.734375 -0.8125q-1.625 -0.484375 -2.34375 -1.6875q-0.71875 -1.203125 -1.015625 -2.734375q-0.375 -0.859375 -0.375 -1.734375l0 -54.51561q0 -2.6875 1.09375 -4.171875q1.109375 -1.5 2.9375 -2.21875q1.828125 -0.71875 4.125 -0.859375q2.296875 -0.15625 4.796875 -0.15625q1.921875 0 3.890625 -0.046875q1.96875 -0.046875 3.984375 0.046875q3.171875 0.109375 6.578125 0.546875q3.40625 0.421875 6.484375 1.578125q1.4375 0.46875 3.0625 1.34375q1.640625 0.765625 2.59375 1.921875q3.078125 2.78125 4.5625 6.484375q1.484375 3.6875 1.296875 7.4843597q-0.1875 3.78125 -2.0625 7.25q-1.875 3.453125 -5.53125 5.65625zm-16.796875 25.4375q2.984375 -0.1875 6.046875 -0.671875q3.078125 -0.484375 4.234375 -1.828125q1.25 -1.53125 1.765625 -3.59375q0.53125 -2.0625 0.28125 -4.21875q-0.234375 -2.171875 -1.25 -4.140625q-1.0 -1.96875 -2.625 -3.109375q-2.203125 -1.734375 -5.09375 -2.265625q-2.875 -0.53125 -5.65625 -0.53125q-1.34375 0 -2.453125 0.0625q-1.09375 0.046875 -1.921875 0.28125q-0.8125 0.234375 -1.203125 0.90625q-0.375 0.671875 -0.375 2.015625q0.1875 2.5 0 5.0q-0.1875 2.5 -0.1875 4.796875q0 1.34375 -0.0625 2.9375q-0.046875 1.578125 1.015625 2.625q1.0625 1.0625 3.078125 1.453125q2.015625 0.375 4.40625 0.28125zm1.921875 -46.07811q-2.96875 -0.09375 -4.9375 -0.140625q-1.96875 -0.046875 -3.078125 0.296875q-1.109375 0.328125 -1.546875 1.4375q-0.421875 1.09375 -0.328125 3.296875q0 1.828125 -0.046875 3.6093597q-0.046875 1.765625 -0.046875 3.5q0 1.921875 1.25 2.84375q1.25 0.90625 3.125 1.09375q1.875 0.1875 3.9375 0q2.0625 -0.1875 3.59375 -0.484375q3.453125 -0.578125 5.328125 -2.34375q1.875 -1.78125 2.15625 -5.234375q0.390625 -4.3281097 -2.25 -5.9999847q-2.640625 -1.6875 -7.15625 -1.875z" fill-rule="nonzero"/><path fill="#000000" fill-opacity="0.0" d="m337.96326 329.79266l262.96063 0l0 42.015747l-262.96063 0z" fill-rule="evenodd"/><path fill="#000000" d="m434.45306 344.91577q0.046875 -0.671875 0.421875 -1.078125q0.375 -0.40625 1.09375 -0.21875q0.328125 0.09375 0.484375 0.28125q0.171875 0.1875 0.234375 0.4375q0.0625 0.25 0.0625 0.546875q0 0.28125 0 0.5625l0 2.578125q-0.015625 0.140625 -0.015625 0.28125q0.015625 0.140625 0.015625 0.25l0 0.25l0.46875 0q0.203125 0 0.390625 0q0.203125 0 0.359375 -0.015625q1.015625 0 1.75 0.296875q0.75 0.296875 1.203125 0.828125q0.453125 0.53125 0.671875 1.265625q0.21875 0.734375 0.1875 1.609375q-0.015625 1.046875 -0.328125 1.796875q-0.3125 0.75 -0.890625 1.234375q-0.578125 0.484375 -1.390625 0.71875q-0.8125 0.234375 -1.828125 0.234375q-1.15625 0 -1.75 -0.03125q-0.59375 -0.015625 -0.84375 -0.328125q-0.25 -0.3125 -0.28125 -1.09375q-0.015625 -0.796875 -0.015625 -2.296875q0 -1.46875 0 -2.875q0.015625 -1.421875 0 -2.859375q0 -0.1875 -0.015625 -0.390625q0 -0.203125 0 -0.46875q0 -0.265625 0 -0.625q0 -0.359375 0.015625 -0.890625zm3.484375 9.765625q1.03125 -0.0625 1.421875 -0.5625q0.203125 -0.28125 0.3125 -0.671875q0.125 -0.390625 0.09375 -0.78125q-0.015625 -0.390625 -0.15625 -0.75q-0.140625 -0.375 -0.4375 -0.609375q-0.25 -0.234375 -0.515625 -0.328125q-0.265625 -0.109375 -0.546875 -0.125q-0.28125 -0.03125 -0.59375 -0.015625q-0.3125 0 -0.734375 0.015625l0 2.234375l-0.03125 1.546875q0.1875 0.03125 0.390625 0.046875q0.359375 0.03125 0.796875 0zm13.367249 -6.296875q0.171875 0.265625 0.140625 0.5625q0 0.4375 -0.140625 0.75q-0.046875 0.09375 -0.109375 0.25q-0.0625 0.140625 -0.125 0.3125q-0.0625 0.171875 -0.140625 0.328125q-0.078125 0.140625 -0.109375 0.21875l-0.046875 0.078125q-0.25 0.578125 -0.5 1.125q-0.234375 0.546875 -0.53125 1.15625q-0.3125 0.59375 -0.578125 1.171875q-0.265625 0.5625 -0.53125 1.109375q-0.078125 0.140625 -0.140625 0.28125q-0.046875 0.140625 -0.140625 0.296875l-0.890625 1.921875q-0.25 0.484375 -0.46875 0.953125q-0.203125 0.46875 -0.46875 0.921875q-0.046875 0.09375 -0.09375 0.171875q-0.046875 0.09375 -0.09375 0.1875q-0.125 0.21875 -0.375 0.4375q-0.25 0.21875 -0.53125 0.234375q-0.515625 0.03125 -0.875 -0.296875q-0.234375 -0.125 -0.359375 -0.375q-0.078125 -0.171875 -0.078125 -0.421875q0.015625 -0.125 0.03125 -0.234375q0.015625 -0.09375 0.03125 -0.1875q0.03125 -0.09375 0.046875 -0.1875q0.015625 -0.09375 0.0625 -0.140625q0.046875 -0.15625 0.09375 -0.15625l1.359375 -2.9375q-0.09375 -0.203125 -0.1875 -0.421875q-0.09375 -0.21875 -0.171875 -0.390625q-0.234375 -0.578125 -0.515625 -1.21875q-0.265625 -0.640625 -0.546875 -1.28125q-0.28125 -0.640625 -0.578125 -1.25q-0.296875 -0.625 -0.59375 -1.1875q-0.109375 -0.1875 -0.203125 -0.390625q-0.09375 -0.21875 -0.15625 -0.4375q-0.046875 -0.21875 -0.03125 -0.4375q0.015625 -0.234375 0.171875 -0.453125q0.140625 -0.28125 0.375 -0.390625q0.25 -0.125 0.515625 -0.109375q0.28125 0 0.515625 0.109375q0.25 0.109375 0.40625 0.296875q0.3125 0.34375 0.5 0.75q0.1875 0.40625 0.34375 0.84375q0.359375 0.734375 0.734375 1.5625q0.375 0.8125 0.75 1.609375l0.96875 -2.0625q0.140625 -0.296875 0.265625 -0.578125q0.125 -0.28125 0.25 -0.53125q0.15625 -0.328125 0.296875 -0.65625q0.140625 -0.34375 0.328125 -0.625q0.03125 -0.0625 0.0625 -0.125q0.046875 -0.0625 0.078125 -0.125q0.171875 -0.234375 0.296875 -0.359375q0.09375 -0.078125 0.15625 -0.125q0.078125 -0.046875 0.171875 -0.0625q0.125 -0.03125 0.25 -0.046875q0.125 -0.015625 0.234375 0.015625q0.1875 0.046875 0.4375 0.15625q0.28125 0.125 0.4375 0.390625z" fill-rule="nonzero"/><path fill="#000000" d="m465.88348 353.1814q0 0.609375 -0.03125 1.296875q-0.015625 0.6875 -0.0625 1.28125q0 0.5625 -0.046875 1.125q-0.046875 0.484375 -0.15625 1.046875q-0.109375 0.578125 -0.3125 1.0625q-0.265625 0.625 -0.71875 1.078125q-0.4375 0.46875 -1.15625 0.671875q-0.59375 0.140625 -1.125 0.1875q-0.515625 0.046875 -1.109375 -0.015625q-0.390625 -0.0625 -0.84375 -0.21875q-0.4375 -0.15625 -0.828125 -0.40625q-0.390625 -0.234375 -0.703125 -0.5625q-0.296875 -0.328125 -0.40625 -0.734375q-0.125 -0.515625 -0.015625 -0.890625q0.125 -0.359375 0.390625 -0.53125q0.265625 -0.171875 0.609375 -0.0625q0.359375 0.125 0.6875 0.578125q0.21875 0.34375 0.640625 0.546875q0.4375 0.203125 0.921875 0.234375q0.484375 0.046875 0.9375 -0.109375q0.453125 -0.15625 0.71875 -0.546875q0.1875 -0.28125 0.265625 -0.8125q0.09375 -0.515625 0.109375 -1.015625q-0.953125 0.390625 -1.953125 0.28125q-1.0 -0.109375 -1.8125 -0.609375q-0.8125 -0.515625 -1.3125 -1.375q-0.484375 -0.875 -0.40625 -1.984375q0.0625 -0.953125 0.40625 -1.78125q0.34375 -0.84375 1.140625 -1.40625q0.65625 -0.453125 1.46875 -0.578125q0.828125 -0.140625 1.59375 -0.140625q0.453125 0 0.890625 0q0.4375 0 0.796875 0.109375q0.375 0.109375 0.671875 0.375q0.3125 0.25 0.453125 0.765625q0.25 0.78125 0.265625 1.546875q0.03125 0.765625 0.03125 1.59375zm-3.59375 1.546875q0.1875 0 0.359375 -0.03125q0.171875 -0.03125 0.34375 -0.09375q0.3125 -0.109375 0.46875 -0.296875q0.171875 -0.1875 0.21875 -0.421875q0.0625 -0.234375 0.046875 -0.515625q0 -0.28125 0 -0.578125q0 -0.234375 -0.015625 -0.53125q0 -0.296875 -0.046875 -0.5625q-0.03125 -0.28125 -0.109375 -0.484375q-0.078125 -0.203125 -0.21875 -0.265625q-0.265625 -0.078125 -0.609375 -0.09375q-0.328125 -0.03125 -0.671875 0q-0.328125 0.015625 -0.640625 0.125q-0.296875 0.09375 -0.515625 0.265625q-0.265625 0.25 -0.421875 0.609375q-0.15625 0.34375 -0.1875 0.734375q-0.015625 0.390625 0.0625 0.765625q0.09375 0.375 0.3125 0.671875q0.265625 0.375 0.703125 0.546875q0.453125 0.15625 0.921875 0.15625zm7.5191345 -6.453125q0.609375 -0.296875 1.28125 -0.421875q0.671875 -0.140625 1.328125 -0.0625q0.671875 0.078125 1.296875 0.359375q0.625 0.28125 1.140625 0.78125q0.4375 0.4375 0.75 1.046875q0.3125 0.59375 0.46875 1.171875q0.3125 1.03125 0.09375 2.078125q-0.21875 1.046875 -0.765625 1.9375q-0.265625 0.40625 -0.65625 0.734375q-0.375 0.328125 -0.796875 0.53125q-0.5625 0.265625 -1.21875 0.359375q-0.65625 0.109375 -1.265625 0.046875q-1.125 -0.046875 -1.96875 -0.546875q-0.84375 -0.515625 -1.359375 -1.296875q-0.515625 -0.78125 -0.671875 -1.78125q-0.15625 -1.0 0.125 -2.046875q0.296875 -1.109375 0.859375 -1.8125q0.578125 -0.703125 1.359375 -1.078125zm0.5625 2.5q-0.28125 0.265625 -0.4375 0.65625q-0.140625 0.390625 -0.1875 0.8125q-0.03125 0.421875 0.0625 0.84375q0.109375 0.421875 0.328125 0.75q0.1875 0.28125 0.671875 0.46875q0.484375 0.1875 1.015625 0.21875q0.59375 0.046875 1.03125 -0.3125q0.453125 -0.375 0.6875 -0.90625q0.234375 -0.546875 0.21875 -1.171875q-0.015625 -0.640625 -0.34375 -1.171875q-0.21875 -0.375 -0.625 -0.546875q-0.390625 -0.171875 -0.828125 -0.1875q-0.4375 -0.015625 -0.875 0.125q-0.421875 0.140625 -0.71875 0.421875zm13.838593 3.375q0.21875 -0.046875 0.453125 -0.0625q0.234375 -0.03125 0.421875 0.046875q0.203125 0.078125 0.328125 0.265625q0.140625 0.171875 0.140625 0.484375q0 0.21875 -0.109375 0.4375q-0.109375 0.203125 -0.28125 0.375q-0.171875 0.15625 -0.375 0.28125q-0.203125 0.125 -0.390625 0.1875q-0.546875 0.25 -1.25 0.390625q-0.6875 0.125 -1.4375 0.078125q-1.015625 -0.03125 -1.9375 -0.390625q-0.921875 -0.375 -1.4375 -1.203125q-0.484375 -0.828125 -0.578125 -1.828125q-0.09375 -1.015625 0.09375 -1.90625q0.203125 -1.09375 0.6875 -1.765625q0.5 -0.6875 1.1875 -1.09375q0.84375 -0.484375 1.890625 -0.5q1.046875 -0.015625 2.0 0.40625q0.625 0.28125 1.125 0.765625q0.515625 0.46875 0.765625 1.140625q0.078125 0.171875 0.125 0.421875q0.046875 0.234375 0.0625 0.5q0.03125 0.265625 0 0.53125q-0.015625 0.265625 -0.09375 0.46875q-0.109375 0.328125 -0.28125 0.515625q-0.15625 0.1875 -0.421875 0.28125q-0.265625 0.09375 -0.625 0.125q-0.359375 0.03125 -0.859375 0.046875q-0.453125 0.015625 -0.84375 0.015625q-0.390625 0 -0.8125 0q-0.40625 -0.015625 -0.84375 -0.015625q-0.4375 -0.015625 -0.984375 -0.03125q-0.046875 0.359375 0.109375 0.640625q0.15625 0.265625 0.4375 0.453125q0.28125 0.171875 0.625 0.265625q0.359375 0.09375 0.703125 0.109375q0.625 0.03125 1.203125 -0.109375q0.578125 -0.140625 1.203125 -0.328125zm-0.796875 -3.609375q-0.359375 -0.40625 -0.75 -0.59375q-0.296875 -0.140625 -0.625 -0.125q-0.328125 0 -0.625 0.09375q-0.546875 0.140625 -0.921875 0.5625q-0.03125 0.046875 -0.125 0.1875q-0.09375 0.140625 -0.1875 0.296875q-0.078125 0.140625 -0.125 0.265625q-0.03125 0.125 0.046875 0.125l3.65625 0q-0.015625 -0.25 -0.09375 -0.421875q-0.078125 -0.1875 -0.25 -0.390625zm11.45874 1.734375q-0.03125 0.609375 -0.078125 1.234375q-0.03125 0.625 -0.1875 1.203125q-0.15625 0.578125 -0.484375 1.046875q-0.328125 0.46875 -0.921875 0.75q-0.515625 0.265625 -1.125 0.359375q-0.59375 0.109375 -1.1875 0.078125q-0.59375 -0.015625 -1.15625 -0.171875q-0.5625 -0.15625 -1.015625 -0.4375q-0.4375 -0.28125 -0.71875 -0.71875q-0.28125 -0.453125 -0.4375 -0.96875q-0.15625 -0.53125 -0.21875 -1.09375q-0.046875 -0.5625 -0.078125 -1.046875q-0.0625 -1.28125 0 -2.53125q0 -0.25 0 -0.546875q0 -0.3125 0.046875 -0.609375q0.046875 -0.296875 0.15625 -0.546875q0.125 -0.25 0.375 -0.390625q0.5625 -0.296875 1.03125 -0.03125q0.484375 0.265625 0.578125 1.078125q0.0625 0.4375 0.046875 0.953125q-0.015625 0.515625 0.03125 0.953125q0.015625 0.625 0.03125 1.375q0.015625 0.734375 0.203125 1.3125q0.203125 0.578125 0.65625 0.875q0.46875 0.28125 1.375 0.015625q0.4375 -0.125 0.578125 -0.640625q0.140625 -0.53125 0.140625 -1.5625q0 -0.4375 -0.03125 -0.984375q-0.015625 -0.546875 -0.015625 -1.078125q0 -0.53125 0.03125 -0.984375q0.03125 -0.453125 0.109375 -0.703125q0.09375 -0.328125 0.390625 -0.5q0.296875 -0.171875 0.625 -0.171875q0.34375 -0.015625 0.640625 0.140625q0.296875 0.140625 0.40625 0.484375q0.125 0.296875 0.15625 0.75q0.046875 0.453125 0.0625 0.984375q0.03125 0.53125 0.015625 1.09375q0 0.546875 -0.03125 1.03125zm1.9489136 -2.21875q0 -0.4375 -0.015625 -0.921875q0 -0.484375 0.171875 -0.875q0.140625 -0.359375 0.484375 -0.515625q0.34375 -0.15625 0.6875 -0.0625q0.328125 0.0625 0.515625 0.21875q0.1875 0.140625 0.265625 0.34375q0.09375 0.1875 0.109375 0.4375q0.015625 0.25 0.03125 0.5q0.1875 -0.34375 0.46875 -0.546875q0.28125 -0.203125 0.578125 -0.328125q0.296875 -0.140625 0.5625 -0.1875q0.28125 -0.0625 0.4375 -0.0625q0.703125 0 1.390625 0.3125q0.703125 0.296875 1.171875 0.859375q0.265625 0.34375 0.40625 0.703125q0.140625 0.359375 0.203125 0.75q0.0625 0.390625 0.078125 0.796875q0.03125 0.40625 0.046875 0.8125q0.09375 1.1875 0 2.375q-0.015625 0.234375 -0.015625 0.5625q0 0.3125 -0.046875 0.625q-0.046875 0.296875 -0.171875 0.53125q-0.125 0.234375 -0.40625 0.296875q-0.390625 0.09375 -0.640625 0.046875q-0.25 -0.046875 -0.40625 -0.171875q-0.140625 -0.140625 -0.21875 -0.34375q-0.078125 -0.203125 -0.125 -0.46875q-0.046875 -0.203125 -0.078125 -0.46875q-0.015625 -0.28125 -0.03125 -0.5625q0 -0.28125 -0.015625 -0.546875q-0.015625 -0.265625 -0.015625 -0.5q0 -0.34375 -0.015625 -0.765625q-0.015625 -0.4375 0 -0.8125q0 -0.875 -0.453125 -1.328125q-0.453125 -0.46875 -1.234375 -0.390625q-0.609375 0.078125 -1.0625 0.484375q-0.4375 0.390625 -0.421875 1.03125q0 0.234375 0 0.453125q0 0.203125 -0.015625 0.40625q0 0.203125 0 0.453125q0 0.234375 0 0.53125q0 0.609375 0 1.296875q0 0.6875 -0.171875 1.109375q-0.140625 0.453125 -0.5 0.609375q-0.359375 0.171875 -0.84375 -0.09375q-0.203125 -0.109375 -0.328125 -0.296875q-0.109375 -0.203125 -0.1875 -0.421875q-0.0625 -0.21875 -0.078125 -0.453125q-0.015625 -0.234375 -0.03125 -0.4375q-0.0625 -0.625 -0.078125 -1.15625q0 -0.53125 0 -1.140625l0 -2.6875z" fill-rule="nonzero"/></g></svg>